HIERARCHY
ROOT Hips
{
	OFFSET -3.958830 18.904000 13.208200
	CHANNELS 6 Xposition Yposition Zposition Zrotation Yrotation Xrotation 
	JOINT LHipJoint
	{
		OFFSET 0.000000 0.000000 0.000000
		CHANNELS 3 Zrotation Yrotation Xrotation
		JOINT LeftUpLeg
		{
			OFFSET 1.800000 -1.400000 0.085000
			CHANNELS 3 Zrotation Yrotation Xrotation
			JOINT LeftLeg
			{
				OFFSET 2.215000 -6.000000 0.000000
				CHANNELS 3 Zrotation Yrotation Xrotation
				JOINT LeftFoot
				{
					OFFSET 2.500000 -6.900000 0.000000
					CHANNELS 3 Zrotation Yrotation Xrotation
					JOINT LeftToeBase
					{
						OFFSET 0.200000 -0.500000 1.950000
						CHANNELS 3 Zrotation Yrotation Xrotation
						End Site
						{
							OFFSET 0.000000 0.000000 0.000000
						}
					}
				}
			}
		}
	}
	JOINT RHipJoint
	{
		OFFSET 0.000000 0.000000 0.000000
		CHANNELS 3 Zrotation Yrotation Xrotation
		JOINT RightUpLeg
		{
			OFFSET -1.800000 -1.400000 0.085000
			CHANNELS 3 Zrotation Yrotation Xrotation
			JOINT RightLeg
			{
				OFFSET -2.215000 -6.000000 0.000000
				CHANNELS 3 Zrotation Yrotation Xrotation
				JOINT RightFoot
				{
					OFFSET -2.500000 -6.900000 0.000000
					CHANNELS 3 Zrotation Yrotation Xrotation
					JOINT RightToeBase
					{
						OFFSET -0.200000 -0.500000 1.950000
						CHANNELS 3 Zrotation Yrotation Xrotation
						End Site
						{
							OFFSET 0.000000 0.000000 0.000000
						}
					}
				}
			}
		}
	}
	JOINT LowerBack
	{
		OFFSET 0.000000 0.000000 0.000000
		CHANNELS 3 Zrotation Yrotation Xrotation
		JOINT Spine
		{
			OFFSET -0.087000 1.940000 -0.288900
			CHANNELS 3 Zrotation Yrotation Xrotation
			JOINT Spine1
			{
				OFFSET 0.000000 1.950000 0.060000
				CHANNELS 3 Zrotation Yrotation Xrotation
				JOINT Neck
				{
					OFFSET 0.000000 0.000000 0.000000
					CHANNELS 3 Zrotation Yrotation Xrotation
					JOINT Neck1
					{
						OFFSET 0.000000 1.600000 0.340000
						CHANNELS 3 Zrotation Yrotation Xrotation
						JOINT Head
						{
							OFFSET 0.000000 1.667000 -0.240000
							CHANNELS 3 Zrotation Yrotation Xrotation
							End Site
							{
								OFFSET 0.000000 0.000000 0.000000
							}
						}
					}
				}
				JOINT LeftShoulder
				{
					OFFSET 0.000000 0.000000 0.000000
					CHANNELS 3 Zrotation Yrotation Xrotation
					JOINT LeftArm
					{
						OFFSET 2.700000 1.550000 -0.730000
						CHANNELS 3 Zrotation Yrotation Xrotation
						JOINT LeftForeArm
						{
							OFFSET 5.450000 0.000000 0.000000
							CHANNELS 3 Zrotation Yrotation Xrotation
							JOINT LeftHand
							{
								OFFSET 3.450000 0.000000 0.000000
								CHANNELS 3 Zrotation Yrotation Xrotation
								JOINT LeftHandIndex1
								{
									OFFSET 0.750000 0.000000 0.000000
									CHANNELS 3 Zrotation Yrotation Xrotation
									End Site
									{
										OFFSET 0.000000 0.000000 0.000000
									}
								}
							}
						}
					}
				}
				JOINT RightShoulder
				{
					OFFSET 0.000000 0.000000 0.000000
					CHANNELS 3 Zrotation Yrotation Xrotation
					JOINT RightArm
					{
						OFFSET -2.700000 1.550000 -0.730000
						CHANNELS 3 Zrotation Yrotation Xrotation
						JOINT RightForeArm
						{
							OFFSET -5.450000 0.000000 0.000000
							CHANNELS 3 Zrotation Yrotation Xrotation
							JOINT RightHand
							{
								OFFSET -3.450000 0.000000 0.000000
								CHANNELS 3 Zrotation Yrotation Xrotation
								JOINT RightHandIndex1
								{
									OFFSET -0.750000 0.000000 0.000000
									CHANNELS 3 Zrotation Yrotation Xrotation
									End Site
									{
										OFFSET 0.000000 0.000000 0.000000
									}
								}
							}
						}
					}
				}
			}
		}
	}
}
MOTION
Frames: 8
Frame Time: 0.016667
-0.268170 15.853360 -5.572740 -5.469599 -22.393692 -5.340686 -15.348731 9.767647 5.859782 20.543671 0.735467 -40.008804 -41.717265 24.514483 30.597490 1.361201 11.592065 0.701583 0.090540 -0.071790 0.042630 18.666669 -8.975778 3.564641 17.909897 9.494478 -9.641131 7.535885 -7.610317 42.465187 -1.140883 -6.580446 2.041698 -0.056940 0.399930 0.157140 -4.256658 0.706050 -9.370594 -11.689186 9.548011 46.838370 -7.173934 6.668223 -6.999970 -0.356842 -7.932791 -15.096599 -12.562137 5.402690 19.348309 4.388410 0.596000 -17.758980 5.865330 0.180701 5.125222 -19.281062 11.227749 -4.277613 19.169635 4.287044 0.572466 -4.162116 2.643632 0.509320 -0.026640 0.064360 0.167440 -3.430893 12.185797 11.682932 22.724086 -4.069529 -3.534604 0.336712 -0.367535 -0.270907 2.756383 -0.823871 -0.251500 0.372880 0.104380 0.042500 
-0.326310 15.780720 -5.516280 -6.802757 -26.619437 -3.816917 -15.345013 9.593150 5.867562 20.677802 1.312829 -39.480119 -45.066004 24.348122 27.541214 1.414249 11.431447 0.775889 0.114060 -0.002330 0.016100 18.682778 -8.934086 3.705769 19.083777 10.281380 -9.546295 8.230420 -8.042150 44.379040 -1.248711 -6.916519 1.945310 -0.017760 0.425260 0.144160 -4.434471 1.026355 -9.447277 -12.501926 9.683721 46.066313 -6.926118 5.097237 -11.519463 -0.535849 -8.486681 -13.857470 -13.588555 6.678539 18.280769 5.914110 0.755790 -18.987950 6.118653 3.683735 4.217680 -19.741986 11.793009 -4.028271 17.547319 1.667855 0.346222 -4.116088 2.608939 0.486180 -0.031570 0.075440 0.194670 -3.208091 8.488069 10.298631 16.223227 -3.959425 -2.940576 2.356436 -1.199226 -0.577945 2.790809 -0.740536 -0.236930 0.419330 0.093120 0.082910 
-0.388570 15.735420 -5.481100 -7.537031 -29.186203 -3.042712 -15.317536 9.548512 5.774616 20.076433 0.756884 -38.951720 -45.049514 24.138130 27.379222 1.412544 11.297397 0.789074 0.208700 0.116600 0.034580 18.696816 -8.980961 3.806226 19.819922 10.574914 -9.551952 8.685787 -8.488730 45.889770 -1.363670 -7.206494 1.822087 0.040000 0.386400 0.172650 -4.584150 1.246215 -9.440548 -13.953322 9.156771 45.136871 -6.713516 3.445575 -13.074679 -0.726331 -8.876639 -13.390816 -14.367196 8.152063 17.328767 7.639260 1.223450 -20.116470 4.971430 4.435604 4.021451 -18.422320 12.626990 -3.772397 14.649529 1.877112 0.116584 -4.047148 2.679860 0.479950 -0.068100 0.110240 0.225020 -1.568639 7.032048 9.667631 9.057328 -4.716598 -2.146072 3.174964 -1.576936 -0.812338 2.813915 -0.778126 -0.178030 0.381550 0.053690 0.107270 
-0.461820 15.699050 -5.462220 -8.159520 -31.751546 -2.316786 -15.294373 9.530318 5.688670 20.063615 0.282232 -38.447734 -43.415497 24.020546 28.354262 1.408381 11.214779 0.788800 0.242830 0.149190 0.047620 18.708265 -9.043318 3.901495 20.897577 10.546571 -9.472378 7.832184 -8.324280 47.155179 -1.419689 -7.328472 1.770705 0.036640 0.339410 0.180440 -4.727848 1.451774 -9.436020 -15.561241 8.406433 43.792200 -6.927149 1.789235 -13.791126 -0.362561 -9.514529 -13.734100 -15.743385 8.952840 16.985927 8.489850 1.470260 -20.509270 4.095209 4.173005 4.309894 -17.700499 14.247387 -3.925715 12.407656 2.215043 -0.064118 -3.972203 2.734430 0.483590 -0.109210 0.130970 0.227640 -1.064590 6.994312 9.757559 4.022647 -6.228799 -1.746887 3.555544 -1.837219 -0.943338 2.847381 -0.778087 -0.138170 0.333090 0.029880 0.113780 
-0.539140 15.653670 -5.443800 -9.158482 -33.840091 -1.581468 -15.296938 9.445049 5.705924 20.725565 0.047104 -37.922467 -43.988021 24.048323 28.165312 1.447859 11.194760 0.785717 0.279560 0.193230 0.093250 18.712042 -9.039226 3.956557 22.225494 10.068368 -8.455662 8.118618 -8.689931 47.450262 -1.495775 -7.445896 1.728712 0.040600 0.283460 0.182500 -4.829066 1.580848 -9.488505 -16.428919 7.271889 42.521292 -7.793008 0.338670 -14.435730 0.447275 -9.871714 -13.824134 -16.788116 9.914287 17.429854 8.056020 2.599660 -20.861370 3.426875 4.495283 4.202773 -17.031160 14.101733 -3.701552 11.912197 2.670895 -0.056272 -3.911485 2.768293 0.494950 -0.141800 0.169940 0.225070 -1.668841 6.309207 9.604365 1.116021 -6.656421 -1.448992 2.389318 -2.294840 -0.879704 2.899014 -0.751712 -0.108640 0.300670 -0.008600 0.106830 
-0.608060 15.614280 -5.434090 -10.205549 -35.889140 -0.834234 -15.304570 9.383585 5.745085 21.667914 -0.175790 -37.678813 -43.712070 24.201916 28.712360 1.493220 11.282679 0.788836 0.204460 0.114540 0.071030 18.710474 -9.033302 3.980553 23.001891 9.600282 -7.756096 8.869292 -9.314800 47.405574 -1.526627 -7.543116 1.734121 -0.017590 0.303530 0.160060 -4.918669 1.648960 -9.543306 -17.271831 5.971991 41.398494 -8.804933 -1.241264 -14.635038 1.743353 -10.378600 -14.715387 -18.262307 11.133547 17.829828 6.889490 4.051330 -20.017680 2.534825 3.815819 4.586382 -17.087478 15.523634 -3.868346 12.755508 2.500950 0.087100 -3.903053 2.722306 0.502090 -0.130290 0.167780 0.211070 -2.756849 6.937174 10.214114 -1.170345 -7.681363 -1.333835 2.082752 -2.447930 -0.836405 2.928553 -0.620102 -0.136240 0.324660 0.008360 0.100970 
-0.666830 15.590320 -5.435230 -11.308114 -38.260451 0.221879 -15.311714 9.268555 5.784970 22.738676 -0.311789 -37.658799 -43.223708 24.151632 29.017211 1.444817 11.346913 0.757067 0.159190 0.050730 0.057870 18.715450 -9.043355 4.011971 23.552177 9.521163 -7.631089 9.696055 -10.033134 48.020485 -1.576208 -7.730535 1.670510 -0.042850 0.324640 0.149300 -5.053598 1.847749 -9.597710 -18.189563 4.992152 40.335079 -9.359068 -2.779211 -15.417713 2.442546 -10.713220 -15.115468 -19.218313 12.535481 17.762491 7.150000 5.181880 -19.946560 2.411238 3.585313 4.808554 -18.443923 16.021929 -4.074858 13.698901 2.334985 0.160940 -3.919248 2.696689 0.532020 -0.130700 0.155670 0.183120 -3.669232 6.985373 10.243323 -4.379069 -7.870615 -1.178627 2.790233 -3.143537 -0.973093 2.925822 -0.496852 -0.173160 0.353760 0.056940 0.080480 
-0.741380 15.568920 -5.437850 -12.230996 -40.995381 1.978239 -15.325958 9.113048 5.886523 23.811205 -0.334660 -38.367947 -42.911999 24.019461 28.950968 1.429765 11.322691 0.749769 0.153680 0.055290 0.051360 18.715759 -9.094955 3.989444 23.661623 9.219563 -7.766962 10.464558 -10.486415 47.795825 -1.602908 -7.758608 1.661102 -0.051720 0.319090 0.151800 -5.177499 2.119820 -9.656975 -19.659699 4.443476 38.352206 -9.591570 -4.200296 -16.357929 2.899380 -10.573935 -15.352433 -18.953454 13.153349 17.923115 8.367790 5.811320 -20.648760 2.924357 3.670386 4.868331 -19.132313 15.710234 -4.147110 13.512467 2.491082 0.166033 -3.920647 2.682392 0.543520 -0.143410 0.173140 0.174570 -4.847817 6.453503 10.266708 -6.205894 -8.182296 -0.925736 1.767618 -2.512394 -0.813088 2.922813 -0.430041 -0.163120 0.356870 0.065190 0.083540 
